<svg width="82" height="72" viewBox="0 0 82 72" fill="none" xmlns="http://www.w3.org/2000/svg">
<path fill-rule="evenodd" clip-rule="evenodd" d="M69.7462 69.7415L36.3856 36.3859L47.1415 39.2672C55.2047 36.1374 60.466 32.5107 59.8201 30.1013C59.2091 27.8106 53.4014 27.2395 45.4624 28.3329C42.5113 25.0091 37.8366 23.4444 33.2509 24.6713C28.6655 25.8982 25.4062 29.5945 24.5121 33.9469C17.085 36.9669 12.3404 40.3656 12.9564 42.6652C13.7463 45.6114 23.131 45.7155 34.5925 43.0775L26.9716 71.5396C12.9215 67.7825 2.21806 55.8311 0.305343 41.1206L0.262694 40.7788C0.089316 39.3386 0 37.8727 0 36.3859C0 16.2898 16.2904 0 36.3862 0C46.4366 0 55.5332 4.06867 62.116 10.6561L69.7468 3.02562H81.874V69.7415H69.7468H69.7462Z" fill="#91C0F1"/>
</svg>
